<svg width="400" height="400" viewBox="0 0 400 400" fill="none" xmlns="http://www.w3.org/2000/svg">
<path d="M399.499 399.489C191.599 394.39 108.441 383.252 0.498751 353.374V14.4634H13.4663V0.498749H359.399C390.42 132.887 398.873 220.726 399.499 399.489Z" fill="url(#paint0_angular-brc)"/>
<path fillRule="evenodd" clipRule="evenodd" d="M400 400L399.998 399.487C399.371 220.699 390.917 132.821 359.884 0.384949L359.794 0H12.9675V13.9647H0V353.754L0.3657 353.855C108.364 383.748 191.567 394.889 399.487 399.987L400 400ZM0.997502 352.995V14.9621H13.965V0.997467H359.003C389.91 132.998 398.358 220.758 398.999 398.978C191.728 393.88 108.618 382.756 0.997502 352.995Z" fill="url(#paint1_angular-brc)"/>
<circle r="85" transform="matrix(1 0 0 -1 200 200)" fill="url(#paint2_angular-brc)"/>
<defs>
<radialGradient id="paint0_angular-brc" cx="0" cy="0" r="1" gradientUnits="userSpaceOnUse" gradientTransform="translate(400 400) rotate(-135) scale(565.685)">
<stop stopColor="#8E8988" stopOpacity="0.25"/>
<stop offset="1" stopColor="#F2EEEE" stopOpacity="0.85"/>
</radialGradient>
<radialGradient id="paint1_angular-brc" cx="0" cy="0" r="1" gradientUnits="userSpaceOnUse" gradientTransform="translate(400 400) rotate(-135) scale(565.685)">
<stop stopColor="#8E8988" stopOpacity="0.25"/>
<stop offset="1" stopColor="#F2EEEE" stopOpacity="0.85"/>
</radialGradient>
<radialGradient id="paint2_angular-brc" cx="0" cy="0" r="1" gradientUnits="userSpaceOnUse" gradientTransform="translate(282.5 -117) rotate(-179.013) scale(406.56 388.65)">
<stop stopColor="#BB6BD9" stopOpacity="0.925"/>
<stop offset="1" stopColor="#BB6BD9" stopOpacity="0.75"/>
</radialGradient>
</defs>
</svg>
