<svg width="400" height="400" viewBox="0 0 400 400" fill="none" xmlns="http://www.w3.org/2000/svg">
<path d="M0.500549 399.489C208.401 394.39 291.559 383.252 399.501 353.374V14.4634H386.534V0.498749H40.6012C9.57962 132.887 1.12729 220.726 0.500549 399.489Z" fill="url(#paint0_angular-blc)"/>
<path fillRule="evenodd" clipRule="evenodd" d="M0 400L0.00180054 399.487C0.628632 220.699 9.08298 132.821 40.1156 0.384949L40.2058 0H387.032V13.9647H400V353.754L399.634 353.855C291.636 383.748 208.433 394.889 0.512787 399.987L0 400ZM399.002 352.995V14.9621H386.035V0.997467H40.9966C10.0895 132.998 1.64151 220.758 1.00113 398.978C208.272 393.88 291.382 382.756 399.002 352.995Z" fill="url(#paint1_angular-blc)"/>
<circle cx="200" cy="200" r="85" transform="rotate(-180 200 200)" fill="url(#paint2_angular-blc)"/>
<defs>
<radialGradient id="paint0_angular-blc" cx="0" cy="0" r="1" gradientUnits="userSpaceOnUse" gradientTransform="translate(-1.19209e-05 400) rotate(-45) scale(565.685)">
<stop stopColor="#8E8988" stopOpacity="0.25"/>
<stop offset="1" stopColor="#F2EEEE" stopOpacity="0.85"/>
</radialGradient>
<radialGradient id="paint1_angular-blc" cx="0" cy="0" r="1" gradientUnits="userSpaceOnUse" gradientTransform="translate(-1.19209e-05 400) rotate(-45) scale(565.685)">
<stop stopColor="#8E8988" stopOpacity="0.25"/>
<stop offset="1" stopColor="#F2EEEE" stopOpacity="0.85"/>
</radialGradient>
<radialGradient id="paint2_angular-blc" cx="0" cy="0" r="1" gradientUnits="userSpaceOnUse" gradientTransform="translate(397.5 -2.00001) rotate(-179.013) scale(406.56 388.65)">
<stop stopColor="#41CBF8"/>
<stop offset="1" stopColor="#56CCF2" stopOpacity="0.75"/>
</radialGradient>
</defs>
</svg>
